<?xml version="1.0" encoding="UTF-8"?>
<!DOCTYPE svg PUBLIC "-//W3C//DTD SVG 1.1//EN" "http://www.w3.org/Graphics/SVG/1.1/DTD/svg11.dtd">
<svg xmlns="http://www.w3.org/2000/svg" version="1.1" width="850px" height="196px" style="shape-rendering:geometricPrecision; text-rendering:geometricPrecision; image-rendering:optimizeQuality; fill-rule:evenodd; clip-rule:evenodd" xmlns:xlink="http://www.w3.org/1999/xlink">
<g><path style="opacity:0.922" fill="#0161ce" d="M 211.5,-0.5 C 214.167,-0.5 216.833,-0.5 219.5,-0.5C 219.918,0.221579 220.584,0.721579 221.5,1C 221.167,1.33333 220.833,1.66667 220.5,2C 221.448,2.48278 222.448,2.64945 223.5,2.5C 223.281,3.67504 223.614,4.67504 224.5,5.5C 231.35,11.5183 238.016,17.6849 244.5,24C 246.261,26.9546 248.927,29.7879 252.5,32.5C 253.695,34.1206 254.695,35.7872 255.5,37.5C 249.521,39.0074 243.521,40.8407 237.5,43C 236.619,43.7083 235.953,44.5416 235.5,45.5C 233.833,46.8333 232.167,46.8333 230.5,45.5C 226.969,42.8335 223.636,39.8335 220.5,36.5C 215.158,34.8913 210.491,36.0579 206.5,40C 203.869,43.2993 200.536,46.6327 196.5,50C 196.833,50.3333 197.167,50.6667 197.5,51C 195.751,51.7848 194.084,52.6182 192.5,53.5C 186.618,50.2503 180.618,47.0836 174.5,44C 169.394,44.1138 164.727,43.2805 160.5,41.5C 159.982,30.6862 160.649,20.0195 162.5,9.5C 168.868,9.17033 175.202,9.50367 181.5,10.5C 183.593,13.0025 184.593,16.0025 184.5,19.5C 184.232,22.5741 184.065,25.5741 184,28.5C 188.968,23.0309 194.135,17.6976 199.5,12.5C 200.386,11.675 200.719,10.675 200.5,9.5C 205.18,7.31928 208.847,3.98595 211.5,-0.5 Z"/></g>
<g><path style="opacity:0.827" fill="#010205" d="M 256.5,37.5 C 264.378,36.9953 272.045,37.9953 279.5,40.5C 282.937,43.0603 286.604,45.3936 290.5,47.5C 296.746,54.8317 302.412,61.9984 307.5,69C 306.5,71.0907 307.167,72.7574 309.5,74C 308.949,75.3985 308.616,76.7318 308.5,78C 310.227,83.4653 311.56,89.132 312.5,95C 311.526,102.277 310.193,109.444 308.5,116.5C 308.833,117.167 309.167,117.833 309.5,118.5C 306.113,124.432 303.446,130.599 301.5,137C 311.818,150.14 322.151,163.306 332.5,176.5C 333.246,177.736 333.579,179.07 333.5,180.5C 325.599,181.813 317.599,181.813 309.5,180.5C 305.065,177.059 301.732,172.726 299.5,167.5C 295.038,163.094 291.705,158.427 289.5,153.5C 288.167,153.167 286.833,152.833 285.5,152.5C 282.188,153.438 278.855,154.271 275.5,155C 274.167,155.667 274.167,156.333 275.5,157C 272.167,157.333 268.833,157.667 265.5,158C 265.833,158.333 266.167,158.667 266.5,159C 264.167,159.167 261.833,159.333 259.5,159.5C 242.081,158.082 228.081,149.749 217.5,134.5C 217.644,129.675 215.977,125.675 212.5,122.5C 206.481,103.07 207.315,84.0703 215,65.5C 218.285,60.5463 221.952,55.8797 226,51.5C 226.483,50.552 226.649,49.552 226.5,48.5C 228.122,47.8776 229.455,46.8776 230.5,45.5C 232.167,46.8333 233.833,46.8333 235.5,45.5C 241.879,42.8222 248.545,40.9888 255.5,40C 256.252,39.3292 256.586,38.4959 256.5,37.5 Z M 273.5,53.5 C 273.833,53.5 274.167,53.5 274.5,53.5C 275.5,53.8333 276.167,54.5 276.5,55.5C 274.973,55.573 273.973,54.9063 273.5,53.5 Z M 241.5,55.5 C 242.854,59.0315 245.187,61.8649 248.5,64C 248.167,64.3333 247.833,64.6667 247.5,65C 252.905,68.3475 258.072,72.8475 263,78.5C 263.483,79.448 263.649,80.448 263.5,81.5C 268.324,82.9817 271.99,85.9817 274.5,90.5C 276.253,92.2611 278.253,93.5944 280.5,94.5C 285.842,90.3238 290.676,85.6572 295,80.5C 295.483,79.552 295.649,78.552 295.5,77.5C 295.435,77.0618 295.601,76.7284 296,76.5C 303.7,99.7082 299.2,119.542 282.5,136C 279.015,137.575 275.682,139.409 272.5,141.5C 271.817,141.137 271.15,140.804 270.5,140.5C 271.817,123.897 271.817,107.231 270.5,90.5C 259.712,80.2179 248.712,69.3846 237.5,58C 238.056,57.6174 238.389,57.1174 238.5,56.5C 239.391,55.8902 240.391,55.5569 241.5,55.5 Z M 276.5,55.5 C 277.552,55.3505 278.552,55.5172 279.5,56C 280.833,56.6667 280.833,57.3333 279.5,58C 280.938,58.2189 282.271,58.7189 283.5,59.5C 286.583,63.4727 289.916,67.1394 293.5,70.5C 293.611,72.6477 292.944,72.981 291.5,71.5C 287.322,66.1344 282.489,61.4677 277,57.5C 276.536,56.9056 276.369,56.2389 276.5,55.5 Z M 262.5,55.5 C 262.573,57.0269 261.906,58.0269 260.5,58.5C 260.427,56.9731 261.094,55.9731 262.5,55.5 Z M 253.5,55.5 C 253.716,57.6807 252.883,59.3474 251,60.5C 250.604,58.1713 251.438,56.5046 253.5,55.5 Z M 245.5,53.5 C 247.337,53.6395 247.67,54.3061 246.5,55.5C 245.702,55.0431 245.369,54.3764 245.5,53.5 Z M 263.5,51.5 C 265.337,51.6395 265.67,52.3061 264.5,53.5C 263.702,53.0431 263.369,52.3764 263.5,51.5 Z M 256.5,51.5 C 256.833,51.5 257.167,51.5 257.5,51.5C 256.833,53.5 255.5,54.8333 253.5,55.5C 253.557,54.391 253.89,53.391 254.5,52.5C 255.167,52.1667 255.833,51.8333 256.5,51.5 Z M 260.5,58.5 C 260.167,59.5 259.5,60.1667 258.5,60.5C 258.5,59.1667 259.167,58.5 260.5,58.5 Z M 269.5,58.5 C 269.5,59.8333 268.833,60.5 267.5,60.5C 267.5,59.1667 268.167,58.5 269.5,58.5 Z M 258.5,60.5 C 258.205,62.4233 257.372,64.0899 256,65.5C 255.253,63.0722 256.086,61.4056 258.5,60.5 Z M 267.5,60.5 C 267.5,61.8333 266.833,62.5 265.5,62.5C 265.5,61.1667 266.167,60.5 267.5,60.5 Z M 265.5,62.5 C 265.715,64.1788 265.048,65.1788 263.5,65.5C 263.285,63.8212 263.952,62.8212 265.5,62.5 Z M 263.5,65.5 C 263.5,66.8333 262.833,67.5 261.5,67.5C 261.5,66.1667 262.167,65.5 263.5,65.5 Z M 272.5,65.5 C 272.167,66.5 271.5,67.1667 270.5,67.5C 270.5,66.1667 271.167,65.5 272.5,65.5 Z M 261.5,67.5 C 261.489,70.0009 260.822,70.1676 259.5,68C 260.094,67.5357 260.761,67.369 261.5,67.5 Z M 270.5,67.5 C 270.5,68.8333 269.833,69.5 268.5,69.5C 268.5,68.1667 269.167,67.5 270.5,67.5 Z M 277.5,69.5 C 277.843,67.7748 278.843,67.2748 280.5,68C 279.756,69.0386 278.756,69.5386 277.5,69.5 Z M 268.5,69.5 C 268.461,71.9893 267.461,73.4893 265.5,74C 265.209,72.0421 266.209,70.5421 268.5,69.5 Z M 277.5,69.5 C 277.573,71.0269 276.906,72.0269 275.5,72.5C 275.285,70.8212 275.952,69.8212 277.5,69.5 Z M 282.5,74.5 C 282.511,72.3141 283.511,71.4808 285.5,72C 284.627,73.045 283.627,73.8783 282.5,74.5 Z M 224.5,72.5 C 225.878,73.5451 226.878,74.8784 227.5,76.5C 225.596,76.2624 224.262,75.2624 223.5,73.5C 223.5,72.8333 223.833,72.5 224.5,72.5 Z M 275.5,72.5 C 275.5,73.8333 274.833,74.5 273.5,74.5C 273.5,73.1667 274.167,72.5 275.5,72.5 Z M 273.5,74.5 C 273.5,75.8333 272.833,76.5 271.5,76.5C 271.5,75.1667 272.167,74.5 273.5,74.5 Z M 282.5,74.5 C 281.557,77.4292 279.89,79.7625 277.5,81.5C 277.389,80.8826 277.056,80.3826 276.5,80C 278.416,77.91 280.416,76.0767 282.5,74.5 Z M 271.5,76.5 C 271.361,78.337 270.694,78.6704 269.5,77.5C 269.957,76.7025 270.624,76.3691 271.5,76.5 Z M 287.5,78.5 C 287.639,76.663 288.306,76.3296 289.5,77.5C 289.043,78.2975 288.376,78.6309 287.5,78.5 Z M 287.5,78.5 C 287.715,80.1788 287.048,81.1788 285.5,81.5C 285.427,79.9731 286.094,78.9731 287.5,78.5 Z M 277.5,81.5 C 277.052,83.4646 276.052,83.7979 274.5,82.5C 275.325,81.6143 276.325,81.281 277.5,81.5 Z M 285.5,81.5 C 285.5,82.8333 284.833,83.5 283.5,83.5C 283.5,82.1667 284.167,81.5 285.5,81.5 Z M 283.5,83.5 C 283.483,85.0281 282.816,85.5281 281.5,85C 282.044,84.2828 282.711,83.7828 283.5,83.5 Z M 279.5,86.5 C 281.337,86.6395 281.67,87.3061 280.5,88.5C 279.702,88.0431 279.369,87.3764 279.5,86.5 Z M 221.5,88.5 C 221.5,89.1667 221.5,89.8333 221.5,90.5C 220.833,90.5 220.167,90.5 219.5,90.5C 219.5,89.1667 220.167,88.5 221.5,88.5 Z M 230.5,129.5 C 228.911,128.128 227.578,126.461 226.5,124.5C 222.374,117.62 220.041,110.286 219.5,102.5C 223.298,101.517 227.298,101.183 231.5,101.5C 231.827,111.015 231.494,120.348 230.5,129.5 Z M 257.5,106.5 C 258.833,106.5 259.5,107.167 259.5,108.5C 259.5,107.167 258.833,106.5 257.5,106.5 Z M 247.5,106.5 C 250.167,107.167 251.833,108.833 252.5,111.5C 250.145,110.478 248.478,108.812 247.5,106.5 Z M 242.5,111.5 C 240.564,110.571 238.897,109.237 237.5,107.5C 240.147,107.105 241.813,108.438 242.5,111.5 Z M 245.5,104.5 C 246.833,104.5 247.5,105.167 247.5,106.5C 247.5,105.167 246.833,104.5 245.5,104.5 Z M 262.5,101.5 C 265.153,102.142 266.319,103.808 266,106.5C 264.198,105.211 263.031,103.544 262.5,101.5 Z M 260.5,99.5 C 261.833,99.5 262.5,100.167 262.5,101.5C 262.5,100.167 261.833,99.5 260.5,99.5 Z M 250.5,99.5 C 251.239,99.369 251.906,99.5357 252.5,100C 254.406,102.061 256.073,104.228 257.5,106.5C 254.167,105.167 251.833,102.833 250.5,99.5 Z M 240.5,99.5 C 241.239,99.369 241.906,99.5357 242.5,100C 243.748,101.4 244.748,102.9 245.5,104.5C 244.761,104.631 244.094,104.464 243.5,104C 242.252,102.6 241.252,101.1 240.5,99.5 Z M 258.5,97.5 C 259.833,97.5 260.5,98.1667 260.5,99.5C 260.5,98.1667 259.833,97.5 258.5,97.5 Z M 248.5,97.5 C 249.833,97.5 250.5,98.1667 250.5,99.5C 250.5,98.1667 249.833,97.5 248.5,97.5 Z M 238.5,97.5 C 239.833,97.5 240.5,98.1667 240.5,99.5C 240.5,98.1667 239.833,97.5 238.5,97.5 Z M 263.5,92.5 C 265.048,92.8212 265.715,93.8212 265.5,95.5C 263.952,95.1788 263.285,94.1788 263.5,92.5 Z M 253.5,92.5 C 254.931,93.0819 256.264,93.9152 257.5,95C 258.252,95.6708 258.586,96.5041 258.5,97.5C 255.5,97.1667 253.833,95.5 253.5,92.5 Z M 243.5,92.5 C 246.167,93.1667 247.833,94.8333 248.5,97.5C 245.665,96.9305 243.999,95.2639 243.5,92.5 Z M 233.5,92.5 C 236.167,93.1667 237.833,94.8333 238.5,97.5C 235.665,96.9305 233.999,95.2639 233.5,92.5 Z M 223.5,92.5 C 225.404,92.7376 226.738,93.7376 227.5,95.5C 226.167,95.5 224.833,95.5 223.5,95.5C 223.5,94.5 223.5,93.5 223.5,92.5 Z M 251.5,90.5 C 252.833,90.5 253.5,91.1667 253.5,92.5C 253.5,91.1667 252.833,90.5 251.5,90.5 Z M 241.5,90.5 C 242.833,90.5 243.5,91.1667 243.5,92.5C 243.5,91.1667 242.833,90.5 241.5,90.5 Z M 231.5,90.5 C 232.833,90.5 233.5,91.1667 233.5,92.5C 233.5,91.1667 232.833,90.5 231.5,90.5 Z M 221.5,90.5 C 222.833,90.5 223.5,91.1667 223.5,92.5C 223.5,91.1667 222.833,90.5 221.5,90.5 Z M 229.5,88.5 C 230.833,88.5 231.5,89.1667 231.5,90.5C 231.5,89.1667 230.833,88.5 229.5,88.5 Z M 256.5,85.5 C 257.239,85.369 257.906,85.5357 258.5,86C 260.406,88.0615 262.073,90.2282 263.5,92.5C 260.167,91.1667 257.833,88.8333 256.5,85.5 Z M 246.5,85.5 C 247.239,85.369 247.906,85.5357 248.5,86C 249.748,87.3997 250.748,88.8997 251.5,90.5C 248.833,89.8333 247.167,88.1667 246.5,85.5 Z M 236.5,85.5 C 238.855,86.5218 240.522,88.1884 241.5,90.5C 238.833,89.8333 237.167,88.1667 236.5,85.5 Z M 226.5,85.5 C 228.5,85.5 229.5,86.5 229.5,88.5C 229.5,86.5 228.5,85.5 226.5,85.5 Z M 254.5,83.5 C 255.833,83.5 256.5,84.1667 256.5,85.5C 256.5,84.1667 255.833,83.5 254.5,83.5 Z M 244.5,83.5 C 245.833,83.5 246.5,84.1667 246.5,85.5C 246.5,84.1667 245.833,83.5 244.5,83.5 Z M 234.5,83.5 C 235.833,83.5 236.5,84.1667 236.5,85.5C 236.5,84.1667 235.833,83.5 234.5,83.5 Z M 224.5,83.5 C 225.833,83.5 226.5,84.1667 226.5,85.5C 226.5,84.1667 225.833,83.5 224.5,83.5 Z M 251.5,81.5 C 253.027,81.427 254.027,82.0937 254.5,83.5C 252.821,83.7148 251.821,83.0481 251.5,81.5 Z M 249.5,78.5 C 251.048,78.8212 251.715,79.8212 251.5,81.5C 249.952,81.1788 249.285,80.1788 249.5,78.5 Z M 239.5,78.5 C 240.239,78.369 240.906,78.5357 241.5,79C 242.748,80.3997 243.748,81.8997 244.5,83.5C 241.5,83.1667 239.833,81.5 239.5,78.5 Z M 229.5,78.5 C 230.239,78.369 230.906,78.5357 231.5,79C 232.748,80.3997 233.748,81.8997 234.5,83.5C 231.5,83.1667 229.833,81.5 229.5,78.5 Z M 224.5,83.5 C 223.5,83.5 222.5,83.5 221.5,83.5C 221.34,81.8008 221.506,80.1341 222,78.5C 222.785,80.249 223.618,81.9157 224.5,83.5 Z M 247.5,76.5 C 248.833,76.5 249.5,77.1667 249.5,78.5C 249.5,77.1667 248.833,76.5 247.5,76.5 Z M 237.5,76.5 C 238.833,76.5 239.5,77.1667 239.5,78.5C 239.5,77.1667 238.833,76.5 237.5,76.5 Z M 227.5,76.5 C 228.833,76.5 229.5,77.1667 229.5,78.5C 229.5,77.1667 228.833,76.5 227.5,76.5 Z M 235.5,74.5 C 236.833,74.5 237.5,75.1667 237.5,76.5C 237.5,75.1667 236.833,74.5 235.5,74.5 Z M 240.5,69.5 C 243.521,71.1881 245.855,73.5214 247.5,76.5C 244.167,75.1667 241.833,72.8333 240.5,69.5 Z M 230.5,69.5 C 232.5,70.8333 234.167,72.5 235.5,74.5C 232.833,73.8333 231.167,72.1667 230.5,69.5 Z M 230.5,69.5 C 229.325,69.719 228.325,69.3857 227.5,68.5C 228.86,67.3347 229.86,67.668 230.5,69.5 Z M 235.5,65.5 C 238.069,65.7377 239.735,67.071 240.5,69.5C 237.931,69.2623 236.265,67.929 235.5,65.5 Z M 232.5,61.5 C 234.532,62.0478 235.532,63.3812 235.5,65.5C 233.554,64.9653 232.554,63.632 232.5,61.5 Z M 259.5,108.5 C 261.5,108.5 262.5,109.5 262.5,111.5C 260.81,111.144 259.81,110.144 259.5,108.5 Z M 242.5,111.5 C 243.833,111.5 244.5,112.167 244.5,113.5C 243.5,113.167 242.833,112.5 242.5,111.5 Z M 252.5,111.5 C 253.833,111.5 254.5,112.167 254.5,113.5C 253.5,113.167 252.833,112.5 252.5,111.5 Z M 262.5,111.5 C 263.833,111.5 264.5,112.167 264.5,113.5C 264.5,112.167 263.833,111.5 262.5,111.5 Z M 244.5,113.5 C 248.167,114.5 250.5,116.833 251.5,120.5C 248.167,119.167 245.833,116.833 244.5,113.5 Z M 254.5,113.5 C 255.833,113.5 256.5,114.167 256.5,115.5C 256.5,114.167 255.833,113.5 254.5,113.5 Z M 264.5,113.5 C 265.289,113.783 265.956,114.283 266.5,115C 265.184,115.528 264.517,115.028 264.5,113.5 Z M 241.5,120.5 C 238.667,119.712 237.667,118.045 238.5,115.5C 239.952,116.94 240.952,118.606 241.5,120.5 Z M 256.5,115.5 C 257.5,115.5 258.5,115.5 259.5,115.5C 259.5,116.5 259.5,117.5 259.5,118.5C 257.5,118.5 256.5,117.5 256.5,115.5 Z M 259.5,118.5 C 260.833,118.5 261.5,119.167 261.5,120.5C 261.5,119.167 260.833,118.5 259.5,118.5 Z M 241.5,120.5 C 243.749,121.08 245.415,122.413 246.5,124.5C 244.205,123.864 242.539,122.531 241.5,120.5 Z M 251.5,120.5 C 253.749,121.08 255.415,122.413 256.5,124.5C 253.931,124.262 252.265,122.929 251.5,120.5 Z M 261.5,120.5 C 264.262,120.886 265.262,122.219 264.5,124.5C 263.066,123.412 262.066,122.078 261.5,120.5 Z M 246.5,124.5 C 247.906,124.973 248.573,125.973 248.5,127.5C 247.094,127.027 246.427,126.027 246.5,124.5 Z M 256.5,124.5 C 257.906,124.973 258.573,125.973 258.5,127.5C 257.094,127.027 256.427,126.027 256.5,124.5 Z M 238.5,127.5 C 240.179,127.285 241.179,127.952 241.5,129.5C 239.973,129.573 238.973,128.906 238.5,127.5 Z M 248.5,127.5 C 250.795,128.136 252.461,129.469 253.5,131.5C 251.251,130.92 249.585,129.587 248.5,127.5 Z M 258.5,127.5 C 260.795,128.136 262.461,129.469 263.5,131.5C 260.931,131.262 259.265,129.929 258.5,127.5 Z M 241.5,129.5 C 242.833,129.5 243.5,130.167 243.5,131.5C 243.5,130.167 242.833,129.5 241.5,129.5 Z M 243.5,131.5 C 245.048,131.821 245.715,132.821 245.5,134.5C 243.952,134.179 243.285,133.179 243.5,131.5 Z M 253.5,131.5 C 255.048,131.821 255.715,132.821 255.5,134.5C 253.952,134.179 253.285,133.179 253.5,131.5 Z M 263.5,131.5 C 265.048,131.821 265.715,132.821 265.5,134.5C 263.952,134.179 263.285,133.179 263.5,131.5 Z M 238.5,136.5 C 237.833,136.5 237.167,136.5 236.5,136.5C 237.167,133.833 237.833,133.833 238.5,136.5 Z M 245.5,134.5 C 247.179,134.285 248.179,134.952 248.5,136.5C 246.821,136.715 245.821,136.048 245.5,134.5 Z M 255.5,134.5 C 257.795,135.136 259.461,136.469 260.5,138.5C 258.205,137.864 256.539,136.531 255.5,134.5 Z M 238.5,136.5 C 239.609,136.557 240.609,136.89 241.5,137.5C 240.053,138.885 239.053,138.552 238.5,136.5 Z M 248.5,136.5 C 249.833,136.5 250.5,137.167 250.5,138.5C 250.5,137.167 249.833,136.5 248.5,136.5 Z M 250.5,138.5 C 252.191,139.864 253.858,141.197 255.5,142.5C 254.791,143.404 253.791,143.737 252.5,143.5C 251.833,141.833 251.167,140.167 250.5,138.5 Z M 260.5,138.5 C 262.191,139.864 263.858,141.197 265.5,142.5C 264.791,143.404 263.791,143.737 262.5,143.5C 261.833,141.833 261.167,140.167 260.5,138.5 Z"/></g>
<g><path style="opacity:0.004" fill="#000000" d="M 12.5,40.5 C 41.3304,39.3362 70.3304,39.1695 99.5,40C 70.5019,40.5 41.5019,40.6666 12.5,40.5 Z"/></g>
<g><path style="opacity:0.004" fill="#000000" d="M 120.5,40.5 C 132.993,39.34 145.66,39.1733 158.5,40C 145.838,40.4999 133.171,40.6666 120.5,40.5 Z"/></g>
<g><path style="opacity:0.004" fill="#000000" d="M 369.5,40.5 C 375.653,39.3467 381.986,39.18 388.5,40C 382.175,40.4995 375.842,40.6662 369.5,40.5 Z"/></g>
<g><path style="opacity:1" fill="#002c5d" d="M 255.5,37.5 C 255.833,37.5 256.167,37.5 256.5,37.5C 256.586,38.4959 256.252,39.3292 255.5,40C 248.545,40.9888 241.879,42.8222 235.5,45.5C 235.953,44.5416 236.619,43.7083 237.5,43C 243.521,40.8407 249.521,39.0074 255.5,37.5 Z"/></g>
<g><path style="opacity:0.832" fill="#000000" d="M 10.5,41.5 C 41.1667,41.5 71.8333,41.5 102.5,41.5C 102.5,80.8333 102.5,120.167 102.5,159.5C 93.9149,159.817 85.4149,159.483 77,158.5C 76.3333,128.833 76.3333,99.1667 77,69.5C 77.5,69 78,68.5 78.5,68C 63.5,67.3333 48.5,67.3333 33.5,68C 35.4877,98.2758 36.1544,128.776 35.5,159.5C 27.1667,159.5 18.8333,159.5 10.5,159.5C 10.5,120.167 10.5,80.8333 10.5,41.5 Z"/></g>
<g><path style="opacity:0.892" fill="#000000" d="M 160.5,41.5 C 164.727,43.2805 169.394,44.1138 174.5,44C 180.618,47.0836 186.618,50.2503 192.5,53.5C 194.422,54.96 195.089,56.6267 194.5,58.5C 194.704,60.6854 195.37,62.6854 196.5,64.5C 196.469,69.7551 197.136,74.9218 198.5,80C 197.837,83.4726 197.504,86.9726 197.5,90.5C 195.699,96.098 193.366,101.431 190.5,106.5C 186.985,109.174 183.319,111.674 179.5,114C 174.58,115.24 169.58,116.074 164.5,116.5C 162.667,116.585 161.334,117.252 160.5,118.5C 154.5,118.5 148.5,118.5 142.5,118.5C 142.5,132.167 142.5,145.833 142.5,159.5C 134.5,159.5 126.5,159.5 118.5,159.5C 118.5,120.167 118.5,80.8333 118.5,41.5C 132.5,41.5 146.5,41.5 160.5,41.5 Z M 142.5,67.5 C 151.857,67.1684 161.19,67.5017 170.5,68.5C 174.282,71.3482 176.282,75.1816 176.5,80C 176.282,84.8184 174.282,88.6518 170.5,91.5C 161.19,92.4983 151.857,92.8316 142.5,92.5C 142.5,84.1667 142.5,75.8333 142.5,67.5 Z"/></g>
<g><path style="opacity:0.871" fill="#000000" d="M 366.5,41.5 C 374.5,41.5 382.5,41.5 390.5,41.5C 390.5,45.5 390.5,49.5 390.5,53.5C 396.572,53.7471 402.572,54.5804 408.5,56C 407.167,56.6667 407.167,57.3333 408.5,58C 412.865,59.5213 417.198,61.0213 421.5,62.5C 422.71,66.0497 425.043,68.7164 428.5,70.5C 437.155,83.5401 439.988,97.8735 437,113.5C 432.008,128.9 421.841,139.233 406.5,144.5C 401.21,145.862 395.877,146.862 390.5,147.5C 390.5,151.5 390.5,155.5 390.5,159.5C 382.5,159.5 374.5,159.5 366.5,159.5C 366.5,155.5 366.5,151.5 366.5,147.5C 359.197,146.33 351.864,144.83 344.5,143C 344.833,142.667 345.167,142.333 345.5,142C 340.853,139.399 336.187,136.899 331.5,134.5C 330.486,131.308 328.486,128.808 325.5,127C 325.833,126.667 326.167,126.333 326.5,126C 323.087,121.735 320.754,116.901 319.5,111.5C 315.271,91.4717 320.938,75.6384 336.5,64C 336.167,63.6667 335.833,63.3333 335.5,63C 340.387,61.0529 345.054,58.8862 349.5,56.5C 355.045,54.7114 360.712,53.7114 366.5,53.5C 366.5,49.5 366.5,45.5 366.5,41.5 Z M 362.5,78.5 C 363.833,78.5 365.167,78.5 366.5,78.5C 366.833,93.1818 366.499,107.848 365.5,122.5C 361.504,121.14 357.504,119.64 353.5,118C 344.978,111.426 342.144,102.926 345,92.5C 346.602,90.3536 347.768,88.0202 348.5,85.5C 352.601,83.4552 356.935,81.9552 361.5,81C 361.167,80.6667 360.833,80.3333 360.5,80C 361.416,79.7216 362.082,79.2216 362.5,78.5 Z M 390.5,78.5 C 395.094,80.4539 400.427,82.4539 406.5,84.5C 415.929,94.0461 416.596,104.046 408.5,114.5C 403.476,119.232 397.476,121.898 390.5,122.5C 390.5,107.833 390.5,93.1667 390.5,78.5 Z"/></g>
<g><path style="opacity:0.506" fill="#013a7f" d="M 274.5,53.5 C 274.167,53.5 273.833,53.5 273.5,53.5C 269.355,50.911 264.689,49.911 259.5,50.5C 258.508,50.3284 257.842,50.6618 257.5,51.5C 257.167,51.5 256.833,51.5 256.5,51.5C 258.433,49.7306 260.766,48.3973 263.5,47.5C 267.753,48.8269 271.419,50.8269 274.5,53.5 Z"/></g>
<g><path style="opacity:0.682" fill="#000000" d="M 457.5,55.5 C 476.001,54.8643 494.334,55.531 512.5,57.5C 513.829,91.3999 513.829,125.233 512.5,159C 510.167,159.167 507.833,159.333 505.5,159.5C 502.713,159.426 500.213,158.76 498,157.5C 497.333,129.833 497.333,102.167 498,74.5C 498.692,73.9747 499.192,73.3081 499.5,72.5C 489.522,71.5015 479.522,71.1681 469.5,71.5C 467.372,90.1505 465.205,108.817 463,127.5C 461.759,132.176 460.426,136.843 459,141.5C 456.573,147.367 453.406,152.701 449.5,157.5C 444.552,159.064 438.885,160.397 432.5,161.5C 431.504,156.537 431.337,151.537 432,146.5C 438.155,146.721 442.489,144.054 445,138.5C 445.893,134.102 447.059,129.768 448.5,125.5C 449.329,120.533 449.829,115.533 450,110.5C 450.333,111.167 450.667,111.833 451,112.5C 451.333,106.5 451.667,100.5 452,94.5C 452.333,94.8333 452.667,95.1667 453,95.5C 453.486,82.2423 454.486,69.5757 456,57.5C 456.333,57.8333 456.667,58.1667 457,58.5C 457.483,57.552 457.649,56.552 457.5,55.5 Z"/></g>
<g><path style="opacity:0.762" fill="#000000" d="M 559.5,104.5 C 567.884,91.4544 576.551,77.9544 585.5,64C 585.167,63.6667 584.833,63.3333 584.5,63C 586.906,61.2277 588.906,59.0611 590.5,56.5C 594.445,55.5091 598.445,55.1758 602.5,55.5C 602.5,90.1667 602.5,124.833 602.5,159.5C 597.833,159.5 593.167,159.5 588.5,159.5C 588.833,135.824 588.5,112.157 587.5,88.5C 572.497,111.194 557.83,134.194 543.5,157.5C 539.078,159.359 534.412,160.026 529.5,159.5C 529.5,124.833 529.5,90.1667 529.5,55.5C 534.322,54.9347 538.822,55.6013 543,57.5C 543.333,81.5 543.667,105.5 544,129.5C 548.998,120.491 554.165,112.158 559.5,104.5 Z M 588.5,83.5 C 590.646,83.6964 590.812,84.6964 589,86.5C 588.517,85.552 588.351,84.552 588.5,83.5 Z"/></g>
<g><path style="opacity:0.75" fill="#000000" d="M 639.5,55.5 C 657.5,55.5 675.5,55.5 693.5,55.5C 693.5,85.5 693.5,115.5 693.5,145.5C 696.011,145.162 698.345,145.162 700.5,145.5C 701.499,156.146 701.832,166.813 701.5,177.5C 696.833,177.5 692.167,177.5 687.5,177.5C 687.212,171.771 687.546,166.104 688.5,160.5C 668.167,159.167 647.833,159.167 627.5,160.5C 628.454,166.104 628.788,171.771 628.5,177.5C 623.833,177.5 619.167,177.5 614.5,177.5C 614.5,166.833 614.5,156.167 614.5,145.5C 618.117,145.517 621.45,144.517 624.5,142.5C 628.466,135.668 630.966,128.334 632,120.5C 634.355,98.7717 636.855,77.105 639.5,55.5 Z M 650.5,71.5 C 660.665,71.0269 670.665,71.5269 680.5,73C 679.2,97.118 679.2,121.285 680.5,145.5C 665.305,145.594 650.305,145.428 635.5,145C 639.297,141.251 641.963,136.751 643.5,131.5C 645.273,125.142 646.773,118.809 648,112.5C 649.942,100.289 650.775,86.6228 650.5,71.5 Z"/></g>
<g><path style="opacity:0.71" fill="#000000" d="M 713.5,55.5 C 732.503,55.3334 751.503,55.5001 770.5,56C 771.471,61.0717 771.805,66.2384 771.5,71.5C 756.152,71.1673 740.819,71.5006 725.5,72.5C 726.769,76.6491 727.435,80.9824 727.5,85.5C 727.435,90.0176 726.769,94.3509 725.5,98.5C 740.819,99.4994 756.152,99.8327 771.5,99.5C 771.5,104.167 771.5,108.833 771.5,113.5C 756.496,113.333 741.496,113.5 726.5,114C 725.216,115.297 725.383,116.464 727,117.5C 727.667,125.5 727.667,133.5 727,141.5C 725.383,142.536 725.216,143.703 726.5,145C 741.663,145.425 756.663,145.592 771.5,145.5C 771.5,150.167 771.5,154.833 771.5,159.5C 751.5,159.5 731.5,159.5 711.5,159.5C 711.333,125.498 711.5,91.4984 712,57.5C 712.717,56.9558 713.217,56.2891 713.5,55.5 Z"/></g>
<g><path style="opacity:0.757" fill="#000000" d="M 849.5,78.5 C 849.5,85.5 849.5,92.5 849.5,99.5C 844.964,108.842 838.631,115.676 830.5,120C 819.818,120.168 809.151,120.668 798.5,121.5C 799.481,134.117 799.814,146.783 799.5,159.5C 794.833,159.5 790.167,159.5 785.5,159.5C 785.5,124.833 785.5,90.1667 785.5,55.5C 799.171,55.3334 812.837,55.5001 826.5,56C 825.366,57.016 825.699,57.6827 827.5,58C 832.065,58.9552 836.399,60.4552 840.5,62.5C 844.476,67.2687 847.476,72.6021 849.5,78.5 Z M 798.5,71.5 C 807.839,71.3335 817.173,71.5002 826.5,72C 829.291,74.0348 831.624,76.5348 833.5,79.5C 834.664,85.4724 834.83,91.4724 834,97.5C 832.743,99.7458 830.91,101.079 828.5,101.5C 828.5,102.5 828.5,103.5 828.5,104.5C 822.868,105.991 817.034,106.658 811,106.5C 806.918,106.484 802.918,106.151 799,105.5C 799.83,94.1988 799.663,82.8654 798.5,71.5 Z"/></g>
<g><path style="opacity:0.517" fill="#0263d2" d="M 254.5,52.5 C 253.89,53.391 253.557,54.391 253.5,55.5C 255.5,54.8333 256.833,53.5 257.5,51.5C 258.492,51.6716 259.158,51.3382 259.5,50.5C 264.689,49.911 269.355,50.911 273.5,53.5C 273.973,54.9063 274.973,55.573 276.5,55.5C 276.369,56.2389 276.536,56.9056 277,57.5C 282.489,61.4677 287.322,66.1344 291.5,71.5C 292.944,72.981 293.611,72.6477 293.5,70.5C 294.404,71.209 294.737,72.209 294.5,73.5C 293.167,73.8333 293.167,74.1667 294.5,74.5C 294.263,75.791 294.596,76.791 295.5,77.5C 295.649,78.552 295.483,79.552 295,80.5C 290.676,85.6572 285.842,90.3238 280.5,94.5C 278.253,93.5944 276.253,92.2611 274.5,90.5C 271.99,85.9817 268.324,82.9817 263.5,81.5C 263.649,80.448 263.483,79.448 263,78.5C 258.072,72.8475 252.905,68.3475 247.5,65C 247.833,64.6667 248.167,64.3333 248.5,64C 245.187,61.8649 242.854,59.0315 241.5,55.5C 241.414,54.5041 241.748,53.6708 242.5,53C 245.319,52.8973 247.319,52.3973 248.5,51.5C 249.918,49.6921 251.918,49.0254 254.5,49.5C 254.5,50.5 254.5,51.5 254.5,52.5 Z M 262.5,55.5 C 262.573,57.0269 261.906,58.0269 260.5,58.5C 260.427,56.9731 261.094,55.9731 262.5,55.5 Z M 253.5,55.5 C 251.438,56.5046 250.604,58.1713 251,60.5C 252.883,59.3474 253.716,57.6807 253.5,55.5 Z M 245.5,53.5 C 245.369,54.3764 245.702,55.0431 246.5,55.5C 247.67,54.3061 247.337,53.6395 245.5,53.5 Z M 263.5,51.5 C 263.369,52.3764 263.702,53.0431 264.5,53.5C 265.67,52.3061 265.337,51.6395 263.5,51.5 Z M 256.5,51.5 C 256.833,51.5 257.167,51.5 257.5,51.5C 256.833,53.5 255.5,54.8333 253.5,55.5C 253.557,54.391 253.89,53.391 254.5,52.5C 255.167,52.1667 255.833,51.8333 256.5,51.5 Z M 260.5,58.5 C 260.167,59.5 259.5,60.1667 258.5,60.5C 258.5,59.1667 259.167,58.5 260.5,58.5 Z M 269.5,58.5 C 269.5,59.8333 268.833,60.5 267.5,60.5C 267.5,59.1667 268.167,58.5 269.5,58.5 Z M 258.5,60.5 C 256.086,61.4056 255.253,63.0722 256,65.5C 257.372,64.0899 258.205,62.4233 258.5,60.5 Z M 267.5,60.5 C 267.5,61.8333 266.833,62.5 265.5,62.5C 265.5,61.1667 266.167,60.5 267.5,60.5 Z M 265.5,62.5 C 265.715,64.1788 265.048,65.1788 263.5,65.5C 263.285,63.8212 263.952,62.8212 265.5,62.5 Z M 263.5,65.5 C 263.5,66.8333 262.833,67.5 261.5,67.5C 261.5,66.1667 262.167,65.5 263.5,65.5 Z M 272.5,65.5 C 272.167,66.5 271.5,67.1667 270.5,67.5C 270.5,66.1667 271.167,65.5 272.5,65.5 Z M 261.5,67.5 C 260.761,67.369 260.094,67.5357 259.5,68C 260.822,70.1676 261.489,70.0009 261.5,67.5 Z M 270.5,67.5 C 270.5,68.8333 269.833,69.5 268.5,69.5C 268.5,68.1667 269.167,67.5 270.5,67.5 Z M 277.5,69.5 C 278.756,69.5386 279.756,69.0386 280.5,68C 278.843,67.2748 277.843,67.7748 277.5,69.5 Z M 268.5,69.5 C 266.209,70.5421 265.209,72.0421 265.5,74C 267.461,73.4893 268.461,71.9893 268.5,69.5 Z M 277.5,69.5 C 277.573,71.0269 276.906,72.0269 275.5,72.5C 275.285,70.8212 275.952,69.8212 277.5,69.5 Z M 282.5,74.5 C 283.627,73.8783 284.627,73.045 285.5,72C 283.511,71.4808 282.511,72.3141 282.5,74.5 Z M 275.5,72.5 C 275.5,73.8333 274.833,74.5 273.5,74.5C 273.5,73.1667 274.167,72.5 275.5,72.5 Z M 273.5,74.5 C 273.5,75.8333 272.833,76.5 271.5,76.5C 271.5,75.1667 272.167,74.5 273.5,74.5 Z M 282.5,74.5 C 281.557,77.4292 279.89,79.7625 277.5,81.5C 277.389,80.8826 277.056,80.3826 276.5,80C 278.416,77.91 280.416,76.0767 282.5,74.5 Z M 271.5,76.5 C 270.624,76.3691 269.957,76.7025 269.5,77.5C 270.694,78.6704 271.361,78.337 271.5,76.5 Z M 287.5,78.5 C 288.376,78.6309 289.043,78.2975 289.5,77.5C 288.306,76.3296 287.639,76.663 287.5,78.5 Z M 287.5,78.5 C 287.715,80.1788 287.048,81.1788 285.5,81.5C 285.427,79.9731 286.094,78.9731 287.5,78.5 Z M 277.5,81.5 C 276.325,81.281 275.325,81.6143 274.5,82.5C 276.052,83.7979 277.052,83.4646 277.5,81.5 Z M 285.5,81.5 C 285.5,82.8333 284.833,83.5 283.5,83.5C 283.5,82.1667 284.167,81.5 285.5,81.5 Z M 283.5,83.5 C 282.711,83.7828 282.044,84.2828 281.5,85C 282.816,85.5281 283.483,85.0281 283.5,83.5 Z M 279.5,86.5 C 279.369,87.3764 279.702,88.0431 280.5,88.5C 281.67,87.3061 281.337,86.6395 279.5,86.5 Z"/></g>
<g><path style="opacity:1" fill="#051c3b" d="M 196.5,64.5 C 199.829,73.0896 200.162,81.7562 197.5,90.5C 197.504,86.9726 197.837,83.4726 198.5,80C 197.136,74.9218 196.469,69.7551 196.5,64.5 Z"/></g>
<g><path style="opacity:0.944" fill="#0161cf" d="M 226.5,48.5 C 226.649,49.552 226.483,50.552 226,51.5C 221.952,55.8797 218.285,60.5463 215,65.5C 207.315,84.0703 206.481,103.07 212.5,122.5C 214.279,126.56 215.946,130.56 217.5,134.5C 218.091,142.704 217.424,150.704 215.5,158.5C 197.833,159.833 180.167,159.833 162.5,158.5C 160.547,146.348 159.881,134.015 160.5,121.5C 161.434,120.432 161.768,119.099 161.5,117.5C 167.206,117.829 172.872,117.495 178.5,116.5C 180.451,114.378 182.785,112.878 185.5,112C 187.373,110.296 189.04,108.463 190.5,106.5C 193.366,101.431 195.699,96.098 197.5,90.5C 200.162,81.7562 199.829,73.0896 196.5,64.5C 195.37,62.6854 194.704,60.6854 194.5,58.5C 198.435,54.8678 202.435,50.5345 206.5,45.5C 209.413,43.2216 212.413,41.2216 215.5,39.5C 219.779,41.7813 223.445,44.7813 226.5,48.5 Z"/></g>
<g><path style="opacity:0.706" fill="#01366d" d="M 219.5,82.5 C 219.259,84.8863 219.925,86.8863 221.5,88.5C 220.167,88.5 219.5,89.1667 219.5,90.5C 219.519,93.9532 219.186,97.6199 218.5,101.5C 217.189,99.4402 217.189,97.2735 218.5,95C 217.643,94.3109 216.977,93.4776 216.5,92.5C 217.865,89.1581 218.865,85.8248 219.5,82.5 Z"/></g>
<g><path style="opacity:0.004" fill="#000000" d="M 559.5,104.5 C 558.833,103.167 558.833,103.167 559.5,104.5 Z"/></g>
<g><path style="opacity:0.462" fill="#0161cf" d="M 238.5,56.5 C 238.389,57.1174 238.056,57.6174 237.5,58C 248.712,69.3846 259.712,80.2179 270.5,90.5C 271.817,107.231 271.817,123.897 270.5,140.5C 270.107,144.74 268.441,145.407 265.5,142.5C 263.858,141.197 262.191,139.864 260.5,138.5C 261.167,140.167 261.833,141.833 262.5,143.5C 262.53,144.497 262.03,145.164 261,145.5C 259.518,143.888 257.685,142.888 255.5,142.5C 253.858,141.197 252.191,139.864 250.5,138.5C 251.167,140.167 251.833,141.833 252.5,143.5C 251.399,144.598 250.066,144.765 248.5,144C 246.935,142.588 245.269,141.421 243.5,140.5C 243.5,139.833 243.167,139.5 242.5,139.5C 242.672,138.508 242.338,137.842 241.5,137.5C 240.609,136.89 239.609,136.557 238.5,136.5C 237.833,133.833 237.167,133.833 236.5,136.5C 233.81,134.784 231.81,132.451 230.5,129.5C 231.494,120.348 231.827,111.015 231.5,101.5C 227.298,101.183 223.298,101.517 219.5,102.5C 218.833,102.5 218.5,102.167 218.5,101.5C 219.186,97.6199 219.519,93.9532 219.5,90.5C 220.167,90.5 220.833,90.5 221.5,90.5C 221.5,89.8333 221.5,89.1667 221.5,88.5C 219.925,86.8863 219.259,84.8863 219.5,82.5C 220.21,80.2537 220.71,77.9204 221,75.5C 221.708,74.6195 222.542,73.9528 223.5,73.5C 224.262,75.2624 225.596,76.2624 227.5,76.5C 226.878,74.8784 225.878,73.5451 224.5,72.5C 224.343,71.1266 224.51,69.7932 225,68.5C 227.442,65.8835 229.942,63.5502 232.5,61.5C 233.31,58.3538 235.31,56.6871 238.5,56.5 Z M 257.5,106.5 C 258.833,106.5 259.5,107.167 259.5,108.5C 259.5,107.167 258.833,106.5 257.5,106.5 Z M 247.5,106.5 C 250.167,107.167 251.833,108.833 252.5,111.5C 250.145,110.478 248.478,108.812 247.5,106.5 Z M 242.5,111.5 C 241.813,108.438 240.147,107.105 237.5,107.5C 238.897,109.237 240.564,110.571 242.5,111.5 Z M 245.5,104.5 C 246.833,104.5 247.5,105.167 247.5,106.5C 247.5,105.167 246.833,104.5 245.5,104.5 Z M 262.5,101.5 C 263.031,103.544 264.198,105.211 266,106.5C 266.319,103.808 265.153,102.142 262.5,101.5 Z M 260.5,99.5 C 261.833,99.5 262.5,100.167 262.5,101.5C 262.5,100.167 261.833,99.5 260.5,99.5 Z M 250.5,99.5 C 251.239,99.369 251.906,99.5357 252.5,100C 254.406,102.061 256.073,104.228 257.5,106.5C 254.167,105.167 251.833,102.833 250.5,99.5 Z M 240.5,99.5 C 241.239,99.369 241.906,99.5357 242.5,100C 243.748,101.4 244.748,102.9 245.5,104.5C 244.761,104.631 244.094,104.464 243.5,104C 242.252,102.6 241.252,101.1 240.5,99.5 Z M 258.5,97.5 C 259.833,97.5 260.5,98.1667 260.5,99.5C 260.5,98.1667 259.833,97.5 258.5,97.5 Z M 248.5,97.5 C 249.833,97.5 250.5,98.1667 250.5,99.5C 250.5,98.1667 249.833,97.5 248.5,97.5 Z M 238.5,97.5 C 239.833,97.5 240.5,98.1667 240.5,99.5C 240.5,98.1667 239.833,97.5 238.5,97.5 Z M 263.5,92.5 C 265.048,92.8212 265.715,93.8212 265.5,95.5C 263.952,95.1788 263.285,94.1788 263.5,92.5 Z M 253.5,92.5 C 254.931,93.0819 256.264,93.9152 257.5,95C 258.252,95.6708 258.586,96.5041 258.5,97.5C 255.5,97.1667 253.833,95.5 253.5,92.5 Z M 243.5,92.5 C 246.167,93.1667 247.833,94.8333 248.5,97.5C 245.665,96.9305 243.999,95.2639 243.5,92.5 Z M 233.5,92.5 C 236.167,93.1667 237.833,94.8333 238.5,97.5C 235.665,96.9305 233.999,95.2639 233.5,92.5 Z M 223.5,92.5 C 225.404,92.7376 226.738,93.7376 227.5,95.5C 226.167,95.5 224.833,95.5 223.5,95.5C 223.5,94.5 223.5,93.5 223.5,92.5 Z M 251.5,90.5 C 252.833,90.5 253.5,91.1667 253.5,92.5C 253.5,91.1667 252.833,90.5 251.5,90.5 Z M 241.5,90.5 C 242.833,90.5 243.5,91.1667 243.5,92.5C 243.5,91.1667 242.833,90.5 241.5,90.5 Z M 231.5,90.5 C 232.833,90.5 233.5,91.1667 233.5,92.5C 233.5,91.1667 232.833,90.5 231.5,90.5 Z M 221.5,90.5 C 222.833,90.5 223.5,91.1667 223.5,92.5C 223.5,91.1667 222.833,90.5 221.5,90.5 Z M 229.5,88.5 C 230.833,88.5 231.5,89.1667 231.5,90.5C 231.5,89.1667 230.833,88.5 229.5,88.5 Z M 256.5,85.5 C 257.239,85.369 257.906,85.5357 258.5,86C 260.406,88.0615 262.073,90.2282 263.5,92.5C 260.167,91.1667 257.833,88.8333 256.5,85.5 Z M 246.5,85.5 C 247.239,85.369 247.906,85.5357 248.5,86C 249.748,87.3997 250.748,88.8997 251.5,90.5C 248.833,89.8333 247.167,88.1667 246.5,85.5 Z M 236.5,85.5 C 238.855,86.5218 240.522,88.1884 241.5,90.5C 238.833,89.8333 237.167,88.1667 236.5,85.5 Z M 226.5,85.5 C 228.5,85.5 229.5,86.5 229.5,88.5C 229.5,86.5 228.5,85.5 226.5,85.5 Z M 254.5,83.5 C 255.833,83.5 256.5,84.1667 256.5,85.5C 256.5,84.1667 255.833,83.5 254.5,83.5 Z M 244.5,83.5 C 245.833,83.5 246.5,84.1667 246.5,85.5C 246.5,84.1667 245.833,83.5 244.5,83.5 Z M 234.5,83.5 C 235.833,83.5 236.5,84.1667 236.5,85.5C 236.5,84.1667 235.833,83.5 234.5,83.5 Z M 224.5,83.5 C 225.833,83.5 226.5,84.1667 226.5,85.5C 226.5,84.1667 225.833,83.5 224.5,83.5 Z M 251.5,81.5 C 253.027,81.427 254.027,82.0937 254.5,83.5C 252.821,83.7148 251.821,83.0481 251.5,81.5 Z M 249.5,78.5 C 251.048,78.8212 251.715,79.8212 251.5,81.5C 249.952,81.1788 249.285,80.1788 249.5,78.5 Z M 239.5,78.5 C 240.239,78.369 240.906,78.5357 241.5,79C 242.748,80.3997 243.748,81.8997 244.5,83.5C 241.5,83.1667 239.833,81.5 239.5,78.5 Z M 229.5,78.5 C 230.239,78.369 230.906,78.5357 231.5,79C 232.748,80.3997 233.748,81.8997 234.5,83.5C 231.5,83.1667 229.833,81.5 229.5,78.5 Z M 224.5,83.5 C 223.618,81.9157 222.785,80.249 222,78.5C 221.506,80.1341 221.34,81.8008 221.5,83.5C 222.5,83.5 223.5,83.5 224.5,83.5 Z M 247.5,76.5 C 248.833,76.5 249.5,77.1667 249.5,78.5C 249.5,77.1667 248.833,76.5 247.5,76.5 Z M 237.5,76.5 C 238.833,76.5 239.5,77.1667 239.5,78.5C 239.5,77.1667 238.833,76.5 237.5,76.5 Z M 227.5,76.5 C 228.833,76.5 229.5,77.1667 229.5,78.5C 229.5,77.1667 228.833,76.5 227.5,76.5 Z M 235.5,74.5 C 236.833,74.5 237.5,75.1667 237.5,76.5C 237.5,75.1667 236.833,74.5 235.5,74.5 Z M 240.5,69.5 C 243.521,71.1881 245.855,73.5214 247.5,76.5C 244.167,75.1667 241.833,72.8333 240.5,69.5 Z M 230.5,69.5 C 232.5,70.8333 234.167,72.5 235.5,74.5C 232.833,73.8333 231.167,72.1667 230.5,69.5 Z M 230.5,69.5 C 229.86,67.668 228.86,67.3347 227.5,68.5C 228.325,69.3857 229.325,69.719 230.5,69.5 Z M 235.5,65.5 C 238.069,65.7377 239.735,67.071 240.5,69.5C 237.931,69.2623 236.265,67.929 235.5,65.5 Z M 232.5,61.5 C 234.532,62.0478 235.532,63.3812 235.5,65.5C 233.554,64.9653 232.554,63.632 232.5,61.5 Z M 259.5,108.5 C 261.5,108.5 262.5,109.5 262.5,111.5C 260.81,111.144 259.81,110.144 259.5,108.5 Z M 242.5,111.5 C 243.833,111.5 244.5,112.167 244.5,113.5C 243.5,113.167 242.833,112.5 242.5,111.5 Z M 252.5,111.5 C 253.833,111.5 254.5,112.167 254.5,113.5C 253.5,113.167 252.833,112.5 252.5,111.5 Z M 262.5,111.5 C 263.833,111.5 264.5,112.167 264.5,113.5C 264.5,112.167 263.833,111.5 262.5,111.5 Z M 244.5,113.5 C 248.167,114.5 250.5,116.833 251.5,120.5C 248.167,119.167 245.833,116.833 244.5,113.5 Z M 254.5,113.5 C 255.833,113.5 256.5,114.167 256.5,115.5C 256.5,114.167 255.833,113.5 254.5,113.5 Z M 264.5,113.5 C 264.517,115.028 265.184,115.528 266.5,115C 265.956,114.283 265.289,113.783 264.5,113.5 Z M 241.5,120.5 C 240.952,118.606 239.952,116.94 238.5,115.5C 237.667,118.045 238.667,119.712 241.5,120.5 Z M 256.5,115.5 C 257.5,115.5 258.5,115.5 259.5,115.5C 259.5,116.5 259.5,117.5 259.5,118.5C 257.5,118.5 256.5,117.5 256.5,115.5 Z M 259.5,118.5 C 260.833,118.5 261.5,119.167 261.5,120.5C 261.5,119.167 260.833,118.5 259.5,118.5 Z M 241.5,120.5 C 243.749,121.08 245.415,122.413 246.5,124.5C 244.205,123.864 242.539,122.531 241.5,120.5 Z M 251.5,120.5 C 253.749,121.08 255.415,122.413 256.5,124.5C 253.931,124.262 252.265,122.929 251.5,120.5 Z M 261.5,120.5 C 262.066,122.078 263.066,123.412 264.5,124.5C 265.262,122.219 264.262,120.886 261.5,120.5 Z M 246.5,124.5 C 247.906,124.973 248.573,125.973 248.5,127.5C 247.094,127.027 246.427,126.027 246.5,124.5 Z M 256.5,124.5 C 257.906,124.973 258.573,125.973 258.5,127.5C 257.094,127.027 256.427,126.027 256.5,124.5 Z M 238.5,127.5 C 240.179,127.285 241.179,127.952 241.5,129.5C 239.973,129.573 238.973,128.906 238.5,127.5 Z M 248.5,127.5 C 250.795,128.136 252.461,129.469 253.5,131.5C 251.251,130.92 249.585,129.587 248.5,127.5 Z M 258.5,127.5 C 260.795,128.136 262.461,129.469 263.5,131.5C 260.931,131.262 259.265,129.929 258.5,127.5 Z M 241.5,129.5 C 242.833,129.5 243.5,130.167 243.5,131.5C 243.5,130.167 242.833,129.5 241.5,129.5 Z M 243.5,131.5 C 245.048,131.821 245.715,132.821 245.5,134.5C 243.952,134.179 243.285,133.179 243.5,131.5 Z M 253.5,131.5 C 255.048,131.821 255.715,132.821 255.5,134.5C 253.952,134.179 253.285,133.179 253.5,131.5 Z M 263.5,131.5 C 265.048,131.821 265.715,132.821 265.5,134.5C 263.952,134.179 263.285,133.179 263.5,131.5 Z M 238.5,136.5 C 237.833,136.5 237.167,136.5 236.5,136.5C 237.167,133.833 237.833,133.833 238.5,136.5 Z M 245.5,134.5 C 247.179,134.285 248.179,134.952 248.5,136.5C 246.821,136.715 245.821,136.048 245.5,134.5 Z M 255.5,134.5 C 257.795,135.136 259.461,136.469 260.5,138.5C 258.205,137.864 256.539,136.531 255.5,134.5 Z M 248.5,136.5 C 249.833,136.5 250.5,137.167 250.5,138.5C 250.5,137.167 249.833,136.5 248.5,136.5 Z M 250.5,138.5 C 252.191,139.864 253.858,141.197 255.5,142.5C 254.791,143.404 253.791,143.737 252.5,143.5C 251.833,141.833 251.167,140.167 250.5,138.5 Z M 260.5,138.5 C 262.191,139.864 263.858,141.197 265.5,142.5C 264.791,143.404 263.791,143.737 262.5,143.5C 261.833,141.833 261.167,140.167 260.5,138.5 Z"/></g>
<g><path style="opacity:1" fill="#00418a" d="M 190.5,106.5 C 189.04,108.463 187.373,110.296 185.5,112C 182.785,112.878 180.451,114.378 178.5,116.5C 172.872,117.495 167.206,117.829 161.5,117.5C 161.768,119.099 161.434,120.432 160.5,121.5C 160.5,120.5 160.5,119.5 160.5,118.5C 161.334,117.252 162.667,116.585 164.5,116.5C 169.58,116.074 174.58,115.24 179.5,114C 183.319,111.674 186.985,109.174 190.5,106.5 Z"/></g>
<g><path style="opacity:1" fill="#003470" d="M 212.5,122.5 C 215.977,125.675 217.644,129.675 217.5,134.5C 215.946,130.56 214.279,126.56 212.5,122.5 Z"/></g>
<g><path style="opacity:0.914" fill="#0160ce" d="M 309.5,180.5 C 317.599,181.813 325.599,181.813 333.5,180.5C 504.5,180.5 675.5,180.5 846.5,180.5C 846.5,183.833 846.5,187.167 846.5,190.5C 568.167,190.5 289.833,190.5 11.5,190.5C 11.5,187.167 11.5,183.833 11.5,180.5C 110.833,180.5 210.167,180.5 309.5,180.5 Z"/></g>
</svg>
